# xmcd
#
# Track frame offsets:
# 150
# 24720
# 47259
# 62288
# 80724
# 96315
# 117228
# 134751
# 155718
# 170151
# 189337
# 207357
# 221351
# 236392
# 254486
# 277435
# 297667
#
# Disc length: 4238 seconds
#
#
# Revision: 0
# Processed by: cddbd v1.5.2PL0 Copyright (c) Steve Scherf et al.
# Submitted via: FreeRIP 2.96 
#
DISCID=0b108c11
DTITLE=Bonde do Forró - Bonde do Forró Vol .04
DYEAR=1900
DGENRE=Sertanejo
TTITLE0=Agarra Agarra
TTITLE1=Diz Pro Meu Amor
TTITLE2=Agora Vai
TTITLE3=Ainda Sinto o Beijo da Primeira Vez
TTITLE4=Teu Sorriso e Tua Voz
TTITLE5=Depois Daquele Beijo
TTITLE6=Passou da Conta
TTITLE7=90% de Você em Mim
TTITLE8=A Nossa História de Amor
TTITLE9=Cabaré Ambulante
TTITLE10=O Site da Maria Birinyte
TTITLE11=Ó Meu Amor
TTITLE12=Banho de Espuma
TTITLE13=Primeiro Amor
TTITLE14=Aprenda Coração
TTITLE15=Um Anjo
TTITLE16=Me Esqueça
EXTD=
EXTT0=
EXTT1=
EXTT2=
EXTT3=
EXTT4=
EXTT5=
EXTT6=
EXTT7=
EXTT8=
EXTT9=
EXTT10=
EXTT11=
EXTT12=
EXTT13=
EXTT14=
EXTT15=
EXTT16=
PLAYORDER=
